HIERARCHY
ROOT newVegas:Hips
{
	OFFSET 0.000000 96.479958 0.000000
	CHANNELS 6 Xposition Yposition Zposition Xrotation Yrotation Zrotation
	JOINT newVegas:Pelvis
	{
		OFFSET 0.000000 0.000000 0.000000
		CHANNELS 3 Xrotation Yrotation Zrotation
		JOINT newVegas:LeftUpLeg
		{
			OFFSET 18.735201 -5.666702 -4.541200
			CHANNELS 3 Xrotation Yrotation Zrotation
			JOINT newVegas:LeftLeg
			{
				OFFSET -0.021200 -31.938179 0.493100
				CHANNELS 3 Xrotation Yrotation Zrotation
				JOINT newVegas:LeftFoot
				{
					OFFSET 0.021200 -31.938179 -4.336299
					CHANNELS 3 Xrotation Yrotation Zrotation
					JOINT newVegas:LeftToeBase
					{
						OFFSET 0.943001 -26.722000 15.023500
						CHANNELS 3 Xrotation Yrotation Zrotation
						End Site
						{
							OFFSET 0.000000 30.670183 0.000000
						}
					}
				}
				JOINT newVegas:Left_PantLeg
				{
					OFFSET 0.663870 -9.044666 -1.108900
					CHANNELS 3 Xrotation Yrotation Zrotation
					End Site
					{
						OFFSET 1.415995 20.635357 0.000000
					}
				}
			}
		}
		JOINT newVegas:RightUpLeg
		{
			OFFSET -18.735201 -5.666702 -4.541200
			CHANNELS 3 Xrotation Yrotation Zrotation
			JOINT newVegas:RightLeg
			{
				OFFSET 0.018946 -31.938133 0.493100
				CHANNELS 3 Xrotation Yrotation Zrotation
				JOINT newVegas:RightFoot
				{
					OFFSET -0.018946 -31.938126 -4.336299
					CHANNELS 3 Xrotation Yrotation Zrotation
					JOINT newVegas:RightToeBase
					{
						OFFSET -0.943001 -26.722004 15.023500
						CHANNELS 3 Xrotation Yrotation Zrotation
						End Site
						{
							OFFSET 0.000000 30.670187 0.000000
						}
					}
				}
				JOINT newVegas:Right_PantLeg
				{
					OFFSET -0.661674 -9.044716 -1.108900
					CHANNELS 3 Xrotation Yrotation Zrotation
					End Site
					{
						OFFSET -1.415958 20.635269 0.000000
					}
				}
			}
		}
	}
	JOINT newVegas:Spine
	{
		OFFSET 0.000000 10.199997 -0.299500
		CHANNELS 3 Xrotation Yrotation Zrotation
		JOINT newVegas:Spine1
		{
			OFFSET 0.000000 11.900002 -1.516600
			CHANNELS 3 Xrotation Yrotation Zrotation
			JOINT newVegas:Spine2
			{
				OFFSET 0.000000 13.600006 -2.842500
				CHANNELS 3 Xrotation Yrotation Zrotation
				JOINT newVegas:Neck
				{
					OFFSET 0.000000 9.624100 -2.890100
					CHANNELS 3 Xrotation Yrotation Zrotation
					JOINT newVegas:Head
					{
						OFFSET 0.000000 14.068802 -1.351900
						CHANNELS 3 Xrotation Yrotation Zrotation
						JOINT newVegas:Hair_Back
						{
							OFFSET 0.000000 3.231903 -17.524799
							CHANNELS 3 Xrotation Yrotation Zrotation
							End Site
							{
								OFFSET 0.000000 19.849884 0.000000
							}
						}
						JOINT newVegas:Hair_Front
						{
							OFFSET 0.000000 31.260406 4.573800
							CHANNELS 3 Xrotation Yrotation Zrotation
							JOINT newVegas:Hair_Front1
							{
								OFFSET 0.000000 2.284103 11.993300
								CHANNELS 3 Xrotation Yrotation Zrotation
								JOINT newVegas:Hair_Front2
								{
									OFFSET 0.000000 2.284103 11.993300
									CHANNELS 3 Xrotation Yrotation Zrotation
									End Site
									{
										OFFSET 0.000000 12.208862 0.000000
									}
								}
							}
						}
						JOINT newVegas:Jowel
						{
							OFFSET 0.000000 -7.458206 6.864100
							CHANNELS 3 Xrotation Yrotation Zrotation
							End Site
							{
								OFFSET 0.000000 19.849884 0.000000
							}
						}
					}
				}
				JOINT newVegas:LeftShoulder
				{
					OFFSET 15.263000 10.923401 -0.547700
					CHANNELS 3 Xrotation Yrotation Zrotation
					JOINT newVegas:LeftArm
					{
						OFFSET 25.438599 -2.830597 -13.032500
						CHANNELS 3 Xrotation Yrotation Zrotation
						JOINT newVegas:LeftForeArm
						{
							OFFSET 29.960503 0.000000 0.000000
							CHANNELS 3 Xrotation Yrotation Zrotation
							JOINT newVegas:LeftHand
							{
								OFFSET 27.849251 0.000000 0.000000
								CHANNELS 3 Xrotation Yrotation Zrotation
								JOINT newVegas:LeftHandThumb1
								{
									OFFSET 4.487587 -3.305161 6.305391
									CHANNELS 3 Xrotation Yrotation Zrotation
									JOINT newVegas:LeftHandThumb2
									{
										OFFSET 5.480453 -3.164139 3.164143
										CHANNELS 3 Xrotation Yrotation Zrotation
										JOINT newVegas:LeftHandThumb3
										{
											OFFSET 5.159721 -2.978973 2.978967
											CHANNELS 3 Xrotation Yrotation Zrotation
											End Site
											{
												OFFSET 2.494507 5.926697 1.738678
											}
										}
									}
								}
								JOINT newVegas:LeftHandIndex1
								{
									OFFSET 18.578728 -0.527832 5.208049
									CHANNELS 3 Xrotation Yrotation Zrotation
									JOINT newVegas:LeftHandIndex2
									{
										OFFSET 3.192009 0.000000 0.000000
										CHANNELS 3 Xrotation Yrotation Zrotation
										JOINT newVegas:LeftHandIndex3
										{
											OFFSET 3.835129 0.000000 0.000000
											CHANNELS 3 Xrotation Yrotation Zrotation
											End Site
											{
												OFFSET -0.034599 3.816971 0.371180
											}
										}
									}
								}
								JOINT newVegas:LeftHandMiddle1
								{
									OFFSET 18.476105 0.000000 0.000000
									CHANNELS 3 Xrotation Yrotation Zrotation
									JOINT newVegas:LeftHandMiddle2
									{
										OFFSET 3.324875 0.000000 0.000000
										CHANNELS 3 Xrotation Yrotation Zrotation
										JOINT newVegas:LeftHandMiddle3
										{
											OFFSET 4.596550 0.000000 0.000000
											CHANNELS 3 Xrotation Yrotation Zrotation
											End Site
											{
												OFFSET 0.057701 4.578827 0.399218
											}
										}
									}
								}
								JOINT newVegas:LeftHandRing1
								{
									OFFSET 17.732719 0.121887 -4.201567
									CHANNELS 3 Xrotation Yrotation Zrotation
									JOINT newVegas:LeftHandRing2
									{
										OFFSET 2.733170 0.000000 0.000000
										CHANNELS 3 Xrotation Yrotation Zrotation
										JOINT newVegas:LeftHandRing3
										{
											OFFSET 3.178268 0.000000 0.000000
											CHANNELS 3 Xrotation Yrotation Zrotation
											End Site
											{
												OFFSET 0.119102 3.170624 0.185394
											}
										}
									}
								}
								JOINT newVegas:LeftHandPinky1
								{
									OFFSET 15.989624 -0.606689 -7.535461
									CHANNELS 3 Xrotation Yrotation Zrotation
									JOINT newVegas:LeftHandPinky2
									{
										OFFSET 2.538986 0.000000 0.000000
										CHANNELS 3 Xrotation Yrotation Zrotation
										JOINT newVegas:LeftHandPinky3
										{
											OFFSET 2.593102 0.000000 0.000000
											CHANNELS 3 Xrotation Yrotation Zrotation
											End Site
											{
												OFFSET -0.150902 2.584198 0.152708
											}
										}
									}
								}
							}
							JOINT newVegas:Left_Sleeve
							{
								OFFSET 0.267448 -0.649796 0.577675
								CHANNELS 3 Xrotation Yrotation Zrotation
								End Site
								{
									OFFSET 0.000000 15.991241 0.000000
								}
							}
							JOINT newVegas:Left_CapeC
							{
								OFFSET 15.715958 -8.608795 -6.935905
								CHANNELS 3 Xrotation Yrotation Zrotation
								JOINT newVegas:Left_CapeC1
								{
									OFFSET 0.000000 -8.688499 0.000000
									CHANNELS 3 Xrotation Yrotation Zrotation
									End Site
									{
										OFFSET 0.000000 8.688499 0.000000
									}
								}
							}
						}
						JOINT newVegas:Left_CapeB
						{
							OFFSET 26.118385 -8.608795 -7.079235
							CHANNELS 3 Xrotation Yrotation Zrotation
							JOINT newVegas:Left_CapeB1
							{
								OFFSET 0.000000 -8.688499 0.000000
								CHANNELS 3 Xrotation Yrotation Zrotation
								End Site
								{
									OFFSET 0.000000 8.688499 0.000000
								}
							}
						}
						JOINT newVegas:Left_CapeA
						{
							OFFSET 5.115639 -8.608795 -10.395809
							CHANNELS 3 Xrotation Yrotation Zrotation
							JOINT newVegas:Left_CapeA1
							{
								OFFSET 0.000000 -8.688499 0.000000
								CHANNELS 3 Xrotation Yrotation Zrotation
								End Site
								{
									OFFSET 0.000000 8.688499 0.000000
								}
							}
						}
					}
				}
				JOINT newVegas:RightShoulder
				{
					OFFSET -15.263000 10.923401 -0.547700
					CHANNELS 3 Xrotation Yrotation Zrotation
					JOINT newVegas:RightArm
					{
						OFFSET -25.438599 -2.830597 -13.032500
						CHANNELS 3 Xrotation Yrotation Zrotation
						JOINT newVegas:RightForeArm
						{
							OFFSET -29.960503 0.000000 0.000000
							CHANNELS 3 Xrotation Yrotation Zrotation
							JOINT newVegas:RightHand
							{
								OFFSET -27.849251 0.000000 0.000000
								CHANNELS 3 Xrotation Yrotation Zrotation
								JOINT newVegas:RightHandThumb1
								{
									OFFSET -4.487587 -3.305161 6.305391
									CHANNELS 3 Xrotation Yrotation Zrotation
									JOINT newVegas:RightHandThumb2
									{
										OFFSET -5.480453 -3.164139 3.164143
										CHANNELS 3 Xrotation Yrotation Zrotation
										JOINT newVegas:RightHandThumb3
										{
											OFFSET -5.159721 -2.978973 2.978967
											CHANNELS 3 Xrotation Yrotation Zrotation
											End Site
											{
												OFFSET -2.494507 5.926697 1.738678
											}
										}
									}
								}
								JOINT newVegas:RightHandIndex1
								{
									OFFSET -18.578728 -0.527832 5.208049
									CHANNELS 3 Xrotation Yrotation Zrotation
									JOINT newVegas:RightHandIndex2
									{
										OFFSET -3.192009 0.000000 0.000000
										CHANNELS 3 Xrotation Yrotation Zrotation
										JOINT newVegas:RightHandIndex3
										{
											OFFSET -3.835129 0.000000 0.000000
											CHANNELS 3 Xrotation Yrotation Zrotation
											End Site
											{
												OFFSET 0.034599 3.816971 0.371180
											}
										}
									}
								}
								JOINT newVegas:RightHandMiddle1
								{
									OFFSET -18.476105 0.000000 0.000000
									CHANNELS 3 Xrotation Yrotation Zrotation
									JOINT newVegas:RightHandMiddle2
									{
										OFFSET -3.324875 0.000000 0.000000
										CHANNELS 3 Xrotation Yrotation Zrotation
										JOINT newVegas:RightHandMiddle3
										{
											OFFSET -4.596550 0.000000 0.000000
											CHANNELS 3 Xrotation Yrotation Zrotation
											End Site
											{
												OFFSET -0.057701 4.578827 0.399218
											}
										}
									}
								}
								JOINT newVegas:RightHandRing1
								{
									OFFSET -17.732719 0.121887 -4.201567
									CHANNELS 3 Xrotation Yrotation Zrotation
									JOINT newVegas:RightHandRing2
									{
										OFFSET -2.733170 0.000000 0.000000
										CHANNELS 3 Xrotation Yrotation Zrotation
										JOINT newVegas:RightHandRing3
										{
											OFFSET -3.178268 0.000000 0.000000
											CHANNELS 3 Xrotation Yrotation Zrotation
											End Site
											{
												OFFSET -0.119102 3.170624 0.185394
											}
										}
									}
								}
								JOINT newVegas:RightHandPinky1
								{
									OFFSET -15.989624 -0.606689 -7.535461
									CHANNELS 3 Xrotation Yrotation Zrotation
									JOINT newVegas:RightHandPinky2
									{
										OFFSET -2.538986 0.000000 0.000000
										CHANNELS 3 Xrotation Yrotation Zrotation
										JOINT newVegas:RightHandPinky3
										{
											OFFSET -2.593102 0.000000 0.000000
											CHANNELS 3 Xrotation Yrotation Zrotation
											End Site
											{
												OFFSET 0.150902 2.584198 0.152708
											}
										}
									}
								}
							}
							JOINT newVegas:Right_CapeC
							{
								OFFSET -15.715958 -8.608795 -6.935905
								CHANNELS 3 Xrotation Yrotation Zrotation
								JOINT newVegas:Right_CapeC1
								{
									OFFSET 0.000000 -8.688499 0.000000
									CHANNELS 3 Xrotation Yrotation Zrotation
									End Site
									{
										OFFSET 0.000000 8.688499 0.000000
									}
								}
							}
							JOINT newVegas:Right_Sleeve
							{
								OFFSET -0.267448 -0.649994 0.577675
								CHANNELS 3 Xrotation Yrotation Zrotation
								End Site
								{
									OFFSET 0.000000 15.991302 0.000000
								}
							}
						}
						JOINT newVegas:Right_CapeA
						{
							OFFSET -5.115540 -8.608795 -10.395824
							CHANNELS 3 Xrotation Yrotation Zrotation
							JOINT newVegas:Right_CapeA1
							{
								OFFSET 0.000000 -8.688499 0.000000
								CHANNELS 3 Xrotation Yrotation Zrotation
								End Site
								{
									OFFSET 0.000000 8.688499 0.000000
								}
							}
						}
						JOINT newVegas:Right_CapeB
						{
							OFFSET -26.118187 -8.608795 -7.079266
							CHANNELS 3 Xrotation Yrotation Zrotation
							JOINT newVegas:Right_CapeB1
							{
								OFFSET 0.000000 -8.688499 0.000000
								CHANNELS 3 Xrotation Yrotation Zrotation
								End Site
								{
									OFFSET 0.000000 8.688499 0.000000
								}
							}
						}
					}
				}
				JOINT newVegas:Left_Collar
				{
					OFFSET 18.625099 8.655502 8.828100
					CHANNELS 3 Xrotation Yrotation Zrotation
					JOINT newVegas:Left_Collar1
					{
						OFFSET 14.783401 10.540405 -1.259500
						CHANNELS 3 Xrotation Yrotation Zrotation
						End Site
						{
							OFFSET 0.000000 18.199875 0.000000
						}
					}
				}
				JOINT newVegas:Collar_Back
				{
					OFFSET 0.000000 15.630707 -20.132601
					CHANNELS 3 Xrotation Yrotation Zrotation
					End Site
					{
						OFFSET 0.000000 22.523010 0.000000
					}
				}
				JOINT newVegas:Left_Peck
				{
					OFFSET 17.239599 -5.132599 25.482599
					CHANNELS 3 Xrotation Yrotation Zrotation
					End Site
					{
						OFFSET 0.000000 22.523010 0.000000
					}
				}
				JOINT newVegas:Right_Peck
				{
					OFFSET -17.239599 -5.132202 25.482599
					CHANNELS 3 Xrotation Yrotation Zrotation
					End Site
					{
						OFFSET 0.000000 22.523010 0.000000
					}
				}
				JOINT newVegas:Right_Collar
				{
					OFFSET -18.625099 8.655792 8.828100
					CHANNELS 3 Xrotation Yrotation Zrotation
					JOINT newVegas:Right_Collar1
					{
						OFFSET -14.783401 10.539993 -1.259500
						CHANNELS 3 Xrotation Yrotation Zrotation
						End Site
						{
							OFFSET 0.000000 18.199631 0.000000
						}
					}
				}
			}
		}
		JOINT newVegas:Belly
		{
			OFFSET 0.000000 -6.540398 9.014299
			CHANNELS 3 Xrotation Yrotation Zrotation
			End Site
			{
				OFFSET 0.000000 11.566666 0.000000
			}
		}
	}
	JOINT newVegas:ElvisFacialAnim_Joint
	{
		OFFSET 1.000000 -95.330101 -8.825800
		CHANNELS 3 Xrotation Yrotation Zrotation
		End Site
		{
			OFFSET 0.000000 35.315800 0.000000
		}
	}
}
MOTION
Frames: 4
Frame Time: 0.033333
-0.722130 62.827904 3.211143 25.629820 3.738952 2.586437 -0.000001 -0.000000 -0.000000 -105.109966 -7.122128 24.169425 89.342610 -15.798909 -3.326288 -3.416539 1.328142 -9.418577 0.000001 -0.000000 0.000000 -0.000001 0.000001 0.000001 -60.884996 13.952598 -37.600553 108.156640 -8.168385 4.350784 -36.188992 -17.227950 41.945831 -0.000000 0.000002 -0.000000 0.000001 -0.000002 0.000000 43.172693 -8.133583 0.487669 -0.974754 -1.817447 -0.756009 -0.955994 -1.856628 -0.562930 -8.184051 1.093736 -2.750943 -8.184090 1.093735 -2.750940 -0.000004 0.000000 -0.000001 -8.184073 1.093726 -2.750945 -8.184034 1.093743 -2.750948 -0.000003 -0.000001 -0.000000 -0.000004 0.000000 -0.000001 3.168200 -4.797103 -23.999307 -24.495379 8.838979 -19.785996 287.123886 -67.794982 305.592854 -52.821432 3.683642 -0.992342 -4.641188 -3.543760 6.663286 3.926171 27.985196 -0.562443 -0.000000 -0.000001 -0.000001 14.834061 0.538421 37.094139 1.277549 5.440351 -43.246531 -0.000000 -0.000003 0.000002 8.538370 9.369151 58.097876 1.029156 7.158783 -52.399319 -0.000003 -0.000001 0.000000 -5.880676 12.089890 43.377920 0.385884 5.707642 -45.789250 -0.000002 -0.000002 -0.000002 -12.445498 16.228345 10.756149 -0.203554 3.801557 -29.444228 -0.000000 -0.000005 -0.000006 -0.000000 -0.000001 0.000001 -0.000000 -0.000001 0.000001 -0.000001 -0.000001 0.000001 -0.000001 0.000001 -0.000001 -0.000001 0.000000 0.000001 -0.000001 0.000001 -0.000001 -0.000002 -0.000001 -0.000000 -0.515162 18.082905 22.834559 8.460635 -18.278416 19.244067 -228.146186 113.602165 205.214741 -77.367773 29.899932 27.901425 -3.209664 -0.364042 -4.664041 4.520527 -29.776575 0.788005 -0.000000 -0.000001 -0.000000 8.192427 1.047425 -20.837123 1.202055 -5.243208 41.926061 -0.000000 -0.000001 -0.000000 -0.229123 -8.192116 -36.945282 -0.894504 -5.556303 41.565116 0.000001 0.000002 -0.000000 -8.450898 -11.819663 -31.043746 0.592609 -6.034485 48.707138 -0.000002 0.000004 0.000000 5.209298 -7.246988 -8.006875 0.316944 -4.324617 33.573566 0.000000 -0.000000 -0.000000 0.000000 -0.000001 -0.000001 -0.000000 0.000001 0.000002 -0.000000 -0.000000 -0.000002 0.000001 -0.000001 0.000006 0.000001 0.000000 0.000004 0.000001 -0.000001 0.000006 0.000001 0.000000 0.000006 0.000001 0.000001 0.000000 0.000001 0.000001 0.000000 0.000001 0.000001 0.000000 0.000001 0.000001 0.000000 0.000001 0.000001 0.000000 0.000001 0.000001 0.000000 0.000001 0.000001 0.000000 0.000001 0.000000 -0.000000 -0.000001 -0.000000 -0.000000 
-0.724975 62.870987 3.052349 25.916752 2.559785 3.274388 0.000001 0.000000 0.000000 -104.664665 -6.913684 25.246915 89.476755 -15.514361 -3.554918 -4.226579 1.335855 -9.384252 0.000000 -0.000000 0.000000 0.000001 -0.000000 -0.000000 -62.175362 15.120048 -37.232966 108.069302 -7.844149 4.262603 -35.942498 -17.006111 41.687783 0.000000 0.000001 0.000000 0.000002 0.000001 -0.000001 43.183629 -8.767645 -0.216379 -1.053881 -1.698448 -1.094336 -1.036021 -1.750085 -0.918890 -8.375363 1.368836 -3.797713 -8.375361 1.368836 -3.797715 -0.000002 0.000000 -0.000000 -8.375312 1.368837 -3.797716 -8.375430 1.368837 -3.797705 -0.000005 -0.000002 -0.000000 -0.000002 0.000000 -0.000000 4.168234 -2.339316 -23.569741 -25.878272 5.982266 -20.803122 298.358126 -67.670700 314.922838 -53.706102 2.254911 -3.359248 -4.641301 -3.544016 6.663169 3.997392 28.125266 -0.646326 0.000007 0.000001 -0.000001 15.510429 -0.103221 36.989497 1.257822 5.417101 -43.011668 -0.000001 0.000001 0.000001 9.300171 8.771460 57.915155 1.010349 7.135799 -52.069186 0.000001 -0.000002 -0.000001 -5.314276 11.877105 43.509312 0.436333 5.793841 -46.488583 0.000000 0.000001 0.000000 -12.131020 17.099273 9.821849 -0.196241 3.829337 -29.637806 0.000002 -0.000003 -0.000002 0.000002 -0.000005 0.000001 0.000002 -0.000005 0.000001 0.000001 -0.000005 0.000001 0.000000 0.000001 0.000001 0.000000 0.000001 0.000003 0.000000 0.000001 0.000001 -0.000001 -0.000000 0.000001 -0.302636 17.939089 22.178427 7.330469 -16.670656 19.453122 -229.661395 114.731878 206.584167 -77.696428 29.552559 28.552463 -3.209660 -0.364043 -4.664029 4.549560 -29.881644 0.772518 -0.000000 -0.000002 -0.000001 8.295798 1.150742 -20.626000 1.216498 -5.264357 42.102877 -0.000001 -0.000002 -0.000000 0.011021 -7.977184 -35.710193 -0.912375 -5.499492 41.143188 -0.000000 -0.000001 0.000001 -8.504260 -12.015562 -30.904379 0.577523 -6.011309 48.507846 -0.000000 0.000002 0.000002 5.383015 -7.402011 -7.779121 0.316735 -4.326344 33.579508 0.000002 -0.000000 -0.000000 0.000001 -0.000001 0.000003 0.000001 0.000000 0.000006 0.000003 0.000001 0.000004 -0.000001 0.000000 0.000001 -0.000001 0.000000 0.000001 -0.000001 0.000000 0.000001 -0.000001 0.000000 0.000003 0.000000 -0.000000 0.000000 0.000000 -0.000000 0.000000 0.000000 -0.000000 0.000000 0.000000 -0.000000 0.000000 0.000000 -0.000000 0.000000 0.000000 -0.000000 0.000000 0.000000 -0.000000 0.000000 0.000001 -0.000000 -0.000000 0.000001 0.000000 0.000000 
-0.768745 62.825340 2.856369 26.232557 1.605127 2.555429 -0.000001 0.000000 -0.000000 -105.227342 -8.158237 25.669902 90.039262 -15.171710 -3.300926 -4.731652 1.316054 -9.714960 -0.000000 -0.000000 0.000000 -0.000000 -0.000000 0.000000 -62.942959 14.807982 -35.904054 107.524294 -7.917379 4.484287 -35.751433 -16.893027 41.582410 0.000000 0.000002 -0.000000 0.000003 -0.000001 0.000001 43.267954 -8.797201 -0.239747 -1.025699 -1.677404 -0.962868 -1.007803 -1.723413 -0.789592 -8.994729 1.346854 -3.947659 -8.994733 1.346854 -3.947650 0.000002 0.000000 -0.000000 -8.994673 1.346862 -3.947669 -8.994740 1.346848 -3.947651 -0.000002 0.000000 0.000001 0.000002 0.000000 -0.000000 5.099295 0.168831 -22.994450 -26.737687 4.233432 -22.357190 308.893065 -67.035117 322.844874 -54.493438 0.080642 -4.655316 -4.641090 -3.543506 6.663398 3.851473 28.070156 -0.179368 -0.000002 -0.000003 -0.000006 15.849807 -0.162412 37.657725 1.269144 5.434580 -43.157561 0.000003 -0.000002 0.000000 9.399070 8.987502 58.678394 1.006720 7.133213 -51.951696 -0.000001 -0.000001 0.000005 -5.127281 12.017035 43.125613 0.519464 5.930619 -47.614574 0.000004 0.000003 0.000001 -11.994662 17.500693 9.683899 -0.194166 3.839813 -29.707314 0.000004 -0.000005 -0.000002 -0.000000 0.000001 -0.000001 -0.000000 0.000001 -0.000001 -0.000001 0.000001 -0.000001 -0.000001 0.000002 -0.000000 -0.000001 0.000001 0.000002 -0.000001 0.000002 -0.000000 -0.000002 -0.000000 0.000001 -0.092527 17.583093 21.894156 5.094892 -14.579558 18.351091 -228.848562 116.252401 205.974258 -78.424054 29.873192 29.469831 -3.209692 -0.364041 -4.664009 4.574181 -29.967557 0.762502 0.000002 -0.000005 -0.000003 8.362139 1.257215 -20.153508 1.213500 -5.260990 42.059069 0.000000 0.000005 0.000000 0.291949 -7.759911 -33.895647 -0.922022 -5.466958 40.896198 0.000001 -0.000001 -0.000000 -8.611106 -12.261429 -30.857077 0.557575 -5.980237 48.244030 0.000002 0.000004 0.000002 5.600069 -7.629591 -7.150313 0.378445 -4.470522 34.706059 0.000000 -0.000000 -0.000000 0.000001 0.000000 -0.000003 0.000001 -0.000000 -0.000002 0.000001 0.000001 -0.000002 -0.000001 0.000001 -0.000002 -0.000001 0.000002 -0.000003 -0.000001 0.000001 -0.000002 -0.000001 0.000002 -0.000002 0.000002 -0.000000 0.000000 0.000002 -0.000000 0.000000 0.000002 -0.000000 0.000000 0.000002 -0.000000 0.000000 0.000002 -0.000000 0.000000 0.000002 -0.000000 0.000000 0.000002 -0.000000 0.000000 -0.000002 -0.000000 0.000000 -0.000001 0.000000 -0.000000 
-0.796765 62.617615 2.678387 26.344035 1.405317 0.515278 -0.000001 0.000000 0.000000 -106.804331 -10.734891 25.281395 90.855566 -15.304784 -2.708556 -4.423114 1.375313 -10.834059 -0.000000 0.000000 0.000000 0.000000 -0.000000 -0.000000 -62.744659 13.074263 -34.461084 106.819104 -8.010975 5.005756 -35.533595 -16.829682 41.620516 -0.000000 -0.000001 0.000000 0.000000 0.000004 -0.000000 43.505942 -8.361658 0.737519 -0.887691 -1.813462 -0.442052 -0.869353 -1.838816 -0.249191 -9.727600 1.046784 -3.126978 -9.727574 1.046786 -3.126979 0.000001 -0.000000 -0.000001 -9.727574 1.046784 -3.126979 -9.727581 1.046786 -3.126979 0.000001 0.000000 0.000001 0.000001 -0.000000 -0.000000 5.830384 2.483024 -22.059255 -27.029176 2.948406 -24.029048 317.620244 -65.096935 328.646300 -55.122704 -2.528558 -5.538949 -4.641106 -3.543548 6.663361 3.733046 28.021625 0.183254 0.000002 -0.000002 -0.000003 15.929056 0.286655 39.116275 1.210684 5.357383 -42.436894 0.000001 0.000000 0.000000 9.091802 9.645173 59.881525 1.008092 7.136874 -51.917791 -0.000003 0.000001 -0.000000 -5.177645 12.214981 42.966121 0.624271 6.094609 -48.987309 -0.000003 -0.000002 -0.000001 -12.011005 17.528834 10.043751 -0.201310 3.821003 -29.565341 0.000001 -0.000007 0.000002 -0.000002 -0.000001 0.000002 -0.000002 -0.000001 0.000002 -0.000003 -0.000000 0.000001 0.000000 -0.000002 0.000001 -0.000000 -0.000003 0.000001 0.000000 -0.000002 0.000001 -0.000001 -0.000003 -0.000000 0.137953 16.822384 22.119865 2.670262 -11.906422 17.398898 -227.446870 118.339748 204.988921 -78.990666 30.414528 30.270336 -3.209685 -0.364051 -4.664016 4.594629 -30.035149 0.757801 0.000001 -0.000004 0.000001 8.433765 1.402361 -19.439106 1.234334 -5.290369 42.319507 -0.000000 0.000004 0.000000 0.737109 -7.147368 -32.606691 -0.916790 -5.479562 40.967406 0.000001 0.000001 -0.000001 -8.399189 -12.374302 -29.716435 0.550887 -5.969826 48.154644 -0.000001 0.000001 -0.000001 5.740397 -7.773799 -6.572746 0.477083 -4.684751 36.403358 -0.000000 0.000003 -0.000000 0.000000 -0.000002 0.000002 0.000002 -0.000001 0.000001 -0.000000 -0.000001 0.000003 -0.000000 -0.000001 0.000001 -0.000001 0.000000 0.000001 -0.000000 -0.000001 0.000001 -0.000000 0.000000 0.000003 -0.000000 -0.000001 -0.000000 -0.000000 -0.000001 -0.000000 -0.000000 -0.000001 -0.000000 -0.000000 -0.000001 -0.000000 -0.000000 -0.000001 -0.000000 -0.000000 -0.000001 -0.000000 -0.000000 -0.000001 -0.000000 -0.000001 0.000000 0.000000 -0.000001 0.000000 0.000000 
